# xmcd CD database file
#
# Track frame offsets:
#	150
#	21035
#	33570
#	51950
#	68048
#	85673
#	102000
#	124298
#	139210
#	152135
#	168160
#	185453
#
# Disc length: 2655 seconds
#
# Revision: 0
# Processed by: cddbd v1.5.1PL2 Copyright (c) Steve Scherf et al.
# Submitted via: CDex 1.51
#
DISCID=9a0a5d0c
DTITLE=谷ナオミ - 悶えの部屋
DYEAR=2006
DGENRE=JPop
TTITLE0=昭和枯れすゝき
TTITLE1=明治一代女
TTITLE2=みちづれ
TTITLE3=すきま風
TTITLE4=夢追い酒
TTITLE5=再会
TTITLE6=花街の母
TTITLE7=船頭小唄
TTITLE8=なみだ恋
TTITLE9=そんな夕子にほれました
TTITLE10=他人船
TTITLE11=男のポケット
EXTD=YEAR: 2006
EXTT0=
EXTT1=
EXTT2=
EXTT3=
EXTT4=
EXTT5=
EXTT6=
EXTT7=
EXTT8=
EXTT9=
EXTT10=
EXTT11=
PLAYORDER=
